<?xml version="1.0" standalone="no"?>
<!DOCTYPE svg PUBLIC "-//W3C//DTD SVG 20010904//EN"
 "http://www.w3.org/TR/2001/REC-SVG-20010904/DTD/svg10.dtd">
<svg version="1.0" xmlns="http://www.w3.org/2000/svg"
 width="607.000000pt" height="1080.000000pt" viewBox="0 0 607.000000 1080.000000"
 preserveAspectRatio="xMidYMid meet">

<g transform="translate(0.000000,1080.000000) scale(0.100000,-0.100000)"
fill="#FFFFFF" stroke="none">
<path d="M2851 10790 c-104 -22 -199 -97 -248 -198 -25 -51 -28 -68 -28 -152
1 -78 5 -103 24 -143 35 -71 104 -142 169 -174 51 -25 68 -28 157 -28 89 0
106 3 157 28 191 94 256 342 137 517 -40 58 -109 114 -167 134 -56 20 -147 27
-201 16z"/>
<path d="M3806 9889 c-28 -4 -82 -24 -122 -44 -87 -42 -150 -108 -196 -204
-31 -62 -33 -72 -33 -176 0 -103 2 -114 32 -178 84 -176 279 -281 461 -248
147 27 261 114 325 248 30 64 32 75 32 178 0 102 -2 115 -31 175 -45 94 -111
162 -197 205 -103 50 -170 61 -271 44z"/>
<path d="M2692 8695 c-241 -68 -392 -263 -392 -505 0 -143 47 -257 150 -362
156 -159 381 -199 584 -104 184 85 296 262 296 465 0 224 -129 412 -337 488
-86 32 -223 40 -301 18z"/>
<path d="M1596 7484 c-213 -68 -317 -303 -223 -507 30 -67 77 -120 133 -153
l44 -26 0 -492 0 -491 -167 -90 c-198 -107 -243 -131 -562 -304 l-245 -132
-60 27 c-51 23 -75 28 -146 28 -71 0 -95 -4 -142 -26 -75 -35 -151 -107 -185
-177 -25 -50 -28 -67 -28 -161 0 -95 3 -111 28 -162 26 -52 125 -158 148 -158
5 0 9 -481 8 -1212 l0 -1213 -49 -37 c-101 -77 -145 -177 -138 -312 3 -64 10
-96 31 -138 34 -69 109 -141 185 -176 49 -23 69 -27 147 -26 74 0 100 5 146
26 l56 26 54 -33 c30 -18 342 -198 694 -400 352 -203 696 -401 765 -441 69
-39 226 -130 350 -202 l225 -130 6 -60 c11 -117 90 -231 201 -289 49 -26 62
-28 163 -28 101 0 114 2 163 28 112 59 190 171 201 290 l6 60 130 75 c72 41
249 143 395 227 146 84 321 185 390 225 69 39 206 118 305 175 99 57 335 193
525 303 l345 199 55 -25 c45 -21 71 -26 145 -26 78 -1 98 3 147 26 75 35 151
107 185 175 31 65 42 184 24 260 -16 65 -71 145 -130 190 l-50 38 0 1213 c-1
731 3 1212 8 1212 23 0 119 103 146 157 28 53 30 66 30 163 0 90 -3 112 -23
152 -94 190 -311 267 -498 177 l-41 -20 -479 258 -479 258 -3 497 c-2 492 -2
497 18 503 11 4 47 31 79 60 209 194 132 534 -141 616 -358 109 -630 -321
-377 -596 24 -26 62 -58 86 -72 l43 -25 0 -578 0 -578 544 -293 544 -292 4
-81 c6 -142 85 -265 203 -317 l45 -20 0 -1184 0 -1183 -44 -22 c-123 -59 -197
-174 -206 -319 l-5 -85 -215 -124 c-245 -141 -592 -341 -885 -510 -437 -251
-526 -303 -690 -398 -93 -54 -191 -109 -216 -123 l-46 -25 -32 23 c-45 32
-142 61 -206 61 -63 0 -161 -28 -204 -60 -18 -12 -39 -19 -47 -16 -8 3 -106
58 -217 122 -111 65 -290 168 -397 229 -296 170 -1028 592 -1305 752 l-120 70
-5 84 c-9 145 -83 260 -206 319 l-44 22 0 1184 0 1184 48 24 c114 58 193 186
197 321 l1 69 460 248 c252 137 501 271 552 298 l92 51 0 574 0 575 41 20 c59
31 127 102 157 168 24 50 27 70 27 157 0 118 -16 161 -89 242 -94 104 -252
148 -380 107z"/>
<path d="M2885 5189 c-213 -16 -412 -72 -621 -174 -353 -173 -635 -457 -803
-809 -116 -241 -160 -421 -168 -686 -8 -259 10 -398 83 -625 29 -90 105 -256
161 -348 135 -225 352 -445 579 -585 511 -317 1154 -347 1689 -80 485 244 827
686 947 1223 14 67 21 143 25 301 5 186 4 215 -12 247 -46 99 -200 103 -250 8
-11 -23 -15 -64 -15 -177 0 -261 -47 -469 -155 -684 -76 -150 -161 -265 -297
-395 -124 -120 -197 -177 -313 -244 -228 -131 -552 -199 -825 -172 -269 27
-513 117 -730 269 -106 75 -288 264 -363 378 -109 164 -186 350 -224 541 -25
125 -25 425 0 543 91 421 328 763 682 980 134 82 314 151 500 192 95 21 439
17 542 -5 126 -28 269 -79 382 -137 101 -52 101 -52 101 -89 0 -95 73 -205
165 -247 66 -31 170 -33 235 -3 105 47 170 148 169 259 -1 76 -12 112 -56 173
-63 89 -186 133 -297 104 l-59 -15 -59 35 c-138 81 -359 163 -529 197 -68 14
-321 38 -359 35 -8 -1 -64 -6 -125 -10z"/>
<path d="M2885 4295 c-281 -53 -508 -225 -630 -479 -72 -150 -104 -321 -71
-385 36 -68 123 -91 187 -48 38 25 49 53 72 177 36 187 151 336 328 424 175
87 345 85 528 -5 151 -74 274 -225 316 -385 21 -81 20 -233 -3 -315 -68 -245
-311 -440 -547 -438 l-60 0 -30 47 c-84 130 -284 151 -393 41 -105 -105 -110
-257 -10 -365 97 -106 264 -111 369 -13 29 27 36 29 119 29 219 0 452 106 611
278 236 255 298 665 147 967 -170 339 -567 539 -933 470z"/>
</g>
</svg>
